<?xml version="1.0" encoding="UTF-8" standalone="no"?>
<!DOCTYPE svg PUBLIC "-//W3C//DTD SVG 20010904//EN" "http://www.w3.org/TR/2001/REC-SVG-20010904/DTD/svg10.dtd">
<svg version="1.0" xmlns="http://www.w3.org/2000/svg" width="2480.000000pt" height="300.000000pt" viewBox="0 0 2480.000000 300.000000" preserveAspectRatio="xMidYMid meet">
  <g transform="translate(-200.000000,1005.000000) scale(0.100000,-0.100000)" fill="#ffffff" stroke="none">
    <path d="M16321 9793 c-5 -10 -145 -472 -311 -1028 -166 -555 -311 -1037 -322 -1070 -63 -191 -135 -265 -255 -265 -31 0 -33 -2 -33 -35 l0 -35 320 0 320 0 0 35 0 35 -47 0 c-103 0 -159 31 -173 97 -11 47 7 127 98 433 l49 165 301 3 301 2 75 -228 c41 -125 80 -257 87 -293 11 -60 10 -70 -7 -105 -23 -48 -72 -74 -136 -74 l-48 0 0 -35 0 -35 405 0 405 0 0 35 0 35 -52 0 c-81 1 -131 28 -167 92 -45 77 -79 178 -427 1266 -174 543 -320 995 -326 1005 -5 9 -17 17 -28 17 -11 0 -23 -8 -29 -17z m74 -1110 l132 -418 -255 -3 c-140 -1 -257 0 -260 2 -2 3 42 164 98 358 141 493 141 491 147 485 2 -3 65 -194 138 -424z"/>
    <path d="M21837 9803 c-3 -5 -8 -29 -11 -55 -9 -57 -39 -98 -72 -98 -14 0 -76 22 -137 49 -212 94 -220 96 -417 96 -204 0 -262 -12 -407 -81 -323 -155 -562 -519 -635 -969 -21 -131 -16 -410 11 -532 50 -236 141 -419 286 -572 177 -187 383 -288 655 -322 243 -30 519 37 760 185 l105 64 6 418 c6 408 8 439 40 517 16 37 82 75 150 84 49 7 54 11 57 36 l3 27 -411 0 -411 0 3 -27 c3 -25 8 -29 57 -36 83 -11 134 -46 162 -109 23 -52 23 -59 27 -459 l4 -407 -63 -45 c-133 -93 -234 -127 -383 -127 -211 0 -356 81 -482 271 -241 363 -270 1144 -57 1576 119 243 297 377 519 390 324 20 598 -203 661 -537 17 -88 18 -90 45 -90 34 0 33 -39 8 400 -11 190 -20 348 -20 353 0 4 -11 7 -24 7 -14 0 -27 -3 -29 -7z"/>
    <path d="M2420 9480 l0 -270 29 0 c28 0 28 1 34 68 14 168 78 273 192 314 53 20 84 23 258 26 l198 4 -3 -1014 c-4 -1104 -2 -1064 -62 -1124 -39 -39 -89 -54 -178 -54 l-68 0 0 -35 0 -35 473 2 472 3 0 30 0 30 -87 7 c-112 8 -155 29 -188 88 l-25 45 -3 1028 -2 1029 197 -4 c176 -4 204 -7 255 -26 99 -39 166 -138 183 -267 14 -115 14 -115 40 -115 l25 0 0 270 0 270 -870 0 -870 0 0 -270z"/>
    <path d="M4482 9723 c3 -27 5 -28 84 -34 138 -10 191 -55 214 -181 7 -37 10 -376 8 -990 -3 -873 -4 -936 -21 -973 -22 -48 -53 -84 -87 -97 -14 -6 -63 -13 -110 -17 l-85 -6 0 -30 0 -30 468 -3 467 -2 0 35 0 35 -67 0 c-38 0 -84 5 -105 10 -52 15 -103 76 -117 139 -7 34 -11 213 -11 511 l0 460 425 0 426 0 -3 -487 c-3 -488 -3 -488 -26 -535 -34 -69 -74 -90 -186 -97 l-91 -6 0 -30 0 -30 475 0 475 0 0 30 0 30 -90 6 c-49 4 -102 11 -116 17 -34 14 -75 63 -91 110 -16 47 -24 1841 -9 1940 21 134 72 178 223 190 81 7 83 8 86 35 l3 27 -481 0 -481 0 3 -27 c3 -28 4 -28 89 -35 95 -7 134 -22 172 -67 42 -51 47 -104 47 -531 l0 -400 -425 0 -425 0 0 395 c0 243 4 413 11 444 23 108 81 152 211 159 l78 5 0 28 0 29 -471 0 -470 0 3 -27z"/>
    <path d="M6920 9721 l0 -28 83 -5 c109 -6 156 -30 188 -95 l24 -48 0 -985 0 -985 -25 -50 c-35 -69 -71 -88 -182 -93 l-88 -4 0 -34 0 -34 786 2 787 3 88 290 c49 160 87 296 84 303 -2 6 -15 12 -29 12 -21 0 -28 -9 -46 -57 -50 -133 -140 -272 -215 -328 -19 -15 -66 -39 -103 -53 -65 -25 -77 -26 -337 -30 -294 -4 -333 1 -363 45 -15 25 -17 71 -20 515 l-3 488 258 0 c268 0 315 -6 367 -43 45 -32 77 -115 84 -213 l5 -84 28 0 29 0 0 415 0 415 -29 0 -28 0 -6 -82 c-8 -112 -21 -152 -67 -198 -63 -63 -103 -70 -392 -70 l-248 0 0 466 0 466 328 -4 c371 -5 400 -10 464 -75 47 -49 74 -110 96 -220 18 -87 18 -88 47 -88 28 0 30 2 27 40 -8 149 -23 378 -28 423 l-5 52 -780 0 -779 0 0 -29z"/>
    <path d="M9870 9479 l0 -270 28 3 c26 3 27 6 33 68 10 92 26 147 61 205 63 107 150 135 411 135 l178 0 -4 -1007 c-3 -1064 -3 -1051 -49 -1116 -31 -43 -74 -60 -173 -66 l-90 -6 0 -30 0 -30 475 0 475 0 0 30 0 30 -80 6 c-105 8 -150 23 -179 62 -51 68 -50 43 -54 1121 l-3 1008 203 -4 c226 -5 267 -14 338 -76 63 -53 110 -177 110 -287 0 -43 1 -45 30 -45 l30 0 0 270 0 270 -870 0 -870 0 0 -271z"/>
    <path d="M11930 9721 c0 -31 0 -31 58 -31 127 -1 197 -37 229 -117 17 -45 18 -100 18 -1023 l0 -976 -25 -49 c-37 -71 -72 -88 -187 -93 l-93 -4 0 -34 0 -34 473 2 472 3 0 30 0 30 -90 6 c-101 6 -138 22 -173 73 -37 54 -42 120 -42 568 l0 429 82 -3 82 -3 305 -500 c169 -276 325 -531 348 -568 l42 -67 226 0 225 0 0 35 c0 34 -1 35 -40 35 -53 0 -110 30 -151 78 -38 45 -641 1023 -635 1029 2 2 30 11 63 19 32 9 101 36 153 61 166 80 297 234 335 394 19 81 19 208 0 279 -42 159 -162 302 -315 377 -161 79 -135 76 -782 80 l-578 4 0 -30z m1023 -121 c81 -30 167 -112 211 -201 116 -231 75 -509 -98 -667 -89 -82 -219 -121 -403 -122 l-93 0 0 485 c0 552 -11 492 97 520 79 20 211 13 286 -15z"/>
    <path d="M14180 9721 c0 -28 0 -28 75 -34 110 -8 157 -34 192 -105 l28 -57 0 -965 c0 -945 0 -966 -20 -1015 -31 -75 -81 -106 -187 -114 l-83 -6 0 -30 0 -30 458 -3 457 -2 0 33 0 34 -86 6 c-103 7 -139 26 -174 88 l-25 44 -3 960 c-2 690 0 975 8 1013 21 98 79 141 202 149 78 6 78 6 78 34 l0 29 -460 0 -460 0 0 -29z"/>
    <path d="M17632 9723 c3 -25 8 -29 53 -34 87 -11 121 -36 228 -176 l47 -61 0 -884 c0 -896 -4 -993 -38 -1052 -23 -41 -97 -77 -172 -83 l-60 -6 0 -34 0 -33 368 2 367 3 0 30 0 30 -95 6 c-150 9 -198 40 -225 145 -13 52 -15 167 -13 874 l3 814 679 -967 c575 -820 682 -967 702 -967 l24 0 2 1103 3 1102 25 50 c30 61 84 94 165 102 53 6 55 7 55 34 l0 29 -345 0 -345 0 0 -29 0 -28 84 -5 c112 -7 161 -33 196 -103 l25 -50 3 -630 c1 -346 1 -686 0 -754 l-3 -125 -605 862 -605 862 -263 0 -263 0 3 -27z"/>
    <path d="M22560 9721 l0 -28 84 -5 c112 -7 161 -33 196 -103 l25 -50 0 -975 c0 -1059 2 -1023 -56 -1077 -41 -39 -82 -51 -171 -52 l-78 -1 0 -35 0 -35 781 2 782 3 85 313 c47 172 83 314 80 317 -2 2 -15 6 -27 7 -21 3 -27 -8 -65 -107 -58 -151 -90 -210 -147 -270 -100 -106 -179 -125 -519 -125 -225 0 -248 2 -277 20 -21 13 -35 31 -42 57 -7 25 -11 348 -11 973 0 813 2 944 15 995 27 102 72 134 206 142 l89 6 0 28 0 29 -475 0 -475 0 0 -29z"/>
    <path d="M24610 9720 l0 -30 63 0 c130 0 201 -41 229 -133 19 -61 19 -1933 0 -1994 -13 -45 -52 -97 -84 -114 -12 -6 -62 -14 -112 -18 l-91 -6 0 -30 0 -30 782 -3 c737 -2 783 -1 791 15 6 10 46 139 92 286 45 148 84 275 86 282 3 7 -7 17 -24 23 l-30 10 -36 -86 c-72 -174 -158 -287 -256 -337 -90 -46 -161 -55 -436 -55 -244 0 -252 1 -285 23 -18 12 -36 33 -40 47 -4 14 -7 240 -8 503 l-1 477 258 0 c150 0 273 -5 295 -11 91 -25 140 -106 153 -256 7 -72 7 -73 35 -73 l29 0 0 415 0 415 -29 0 c-28 0 -28 0 -35 -79 -11 -138 -43 -197 -131 -245 -38 -20 -56 -21 -307 -24 l-268 -3 0 466 0 467 328 -4 c309 -4 330 -5 383 -26 104 -41 149 -121 184 -324 5 -34 9 -38 35 -38 36 0 35 -17 15 255 -8 110 -15 215 -15 233 l0 32 -785 0 -785 0 0 -30z"/>
  </g>
</svg>